<svg width="102" height="102" viewBox="0 0 102 102" fill="none" xmlns="http://www.w3.org/2000/svg">
<g clip-path="url(#clip0)">
<path d="M0 51C0 79.1231 22.8769 102 51 102C79.1231 102 102 79.1231 102 51C102 22.8769 79.1191 0 51 0C22.8809 0 0 22.8769 0 51ZM94.0992 51C94.0992 74.7618 74.7658 94.0992 51 94.0992C27.2342 94.0992 7.90082 74.7618 7.90082 51C7.90082 27.2342 27.2342 7.90082 51 7.90082C74.7658 7.90082 94.0992 27.2382 94.0992 51Z" fill="black"/>
<path d="M56.4516 28.4431L36.6995 48.1952C35.1667 49.736 35.1667 52.2246 36.6995 53.7654L56.4516 73.5175C57.929 74.7855 60.1137 74.7855 61.5911 73.5175C63.2464 72.0993 63.4398 69.6027 62.0216 67.9473L45.0744 51L62.0218 34.0132C63.5546 32.4725 63.5546 29.9838 62.0218 28.4431C60.481 26.9103 57.9922 26.9103 56.4516 28.4431Z" fill="black"/>
</g>
<defs>
<clipPath id="clip0">
<rect width="102" height="102" fill="white" transform="translate(0 102) rotate(-90)"/>
</clipPath>
</defs>
</svg>
