<svg width="102" height="102" viewBox="0 0 102 102" fill="none" xmlns="http://www.w3.org/2000/svg">
<g clip-path="url(#clip0)">
<path d="M102 51C102 22.8769 79.1231 0 51 0C22.8769 0 0 22.8769 0 51C0 79.1231 22.8809 102 51 102C79.1191 102 102 79.1231 102 51ZM7.90082 51C7.90082 27.2382 27.2342 7.90082 51 7.90082C74.7658 7.90082 94.0992 27.2382 94.0992 51C94.0992 74.7658 74.7658 94.0992 51 94.0992C27.2342 94.0992 7.90082 74.7618 7.90082 51Z" fill="black"/>
<path d="M45.5484 73.5569L65.3005 53.8048C66.8333 52.264 66.8333 49.7754 65.3005 48.2346L45.5484 28.4825C44.071 27.2145 41.8863 27.2145 40.4089 28.4825C38.7536 29.9007 38.5602 32.3973 39.9784 34.0527L56.9256 51L39.9782 67.9868C38.4454 69.5275 38.4454 72.0162 39.9782 73.5569C41.519 75.0897 44.0078 75.0897 45.5484 73.5569Z" fill="black"/>
</g>
<defs>
<clipPath id="clip0">
<rect width="102" height="102" fill="white" transform="translate(102) rotate(90)"/>
</clipPath>
</defs>
</svg>
